<?xml version="1.0" encoding="UTF-8"?><svg xmlns="http://www.w3.org/2000/svg" width="16px" height="16px" fill="none" stroke-width="1.5" viewBox="0 0 24 24" color="#000000"><path stroke="#000000" stroke-width="1.5" stroke-linecap="round" stroke-linejoin="round" d="M4 12V2.6a.6.6 0 0 1 .6-.6h11.652a.6.6 0 0 1 .424.176l3.148 3.148A.6.6 0 0 1 20 5.75V21.4a.6.6 0 0 1-.6.6H11"></path><path stroke="#000000" stroke-width="1.5" stroke-linecap="round" stroke-linejoin="round" d="M16 2v3.4a.6.6 0 0 0 .6.6H20M1.992 19h3m3 0h-3m0 0v-3m0 3v3"></path></svg>