<?xml version="1.0" encoding="UTF-8" standalone="no"?>
<!-- Created with Inkscape (http://www.inkscape.org/) -->

<svg
   width="49.272705mm"
   height="8.5986462mm"
   viewBox="0 0 49.272705 8.5986462"
   version="1.1"
   id="svg5"
   xmlns="http://www.w3.org/2000/svg"
   xmlns:svg="http://www.w3.org/2000/svg">
  <defs
     id="defs2" />
  <g
     id="layer1"
     transform="translate(-2.303149,-3.4659008)">
    <g
       aria-label="Spyrit"
       id="text2211"
       style="font-size:10.5833px;line-height:1.25;font-family:eurofurence;-inkscape-font-specification:eurofurence;letter-spacing:5.29167px;stroke-width:0.264583">
      <path
         d="m 6.0585134,8.0952409 q 0,0.8193522 -0.5826505,1.4020027 -0.5826505,0.5826504 -1.4020027,0.5826504 -0.5189231,0 -0.9923266,-0.2685654 Q 2.5944742,9.5382112 2.3532205,9.0875675 2.303149,8.9919764 2.303149,8.9145931 q 0,-0.1365587 0.104695,-0.2321498 0.1092469,-0.095591 0.2458057,-0.095591 0.1411106,0 0.2731174,0.1684224 0.050071,0.077383 0.1593184,0.2230459 0.3823644,0.4415398 0.9877747,0.4415398 0.5462348,0 0.9331511,-0.3869163 0.3914683,-0.3914683 0.3914683,-0.9377031 0,-0.5462348 -0.3914683,-0.9331512 Q 4.620095,6.7706214 4.0738602,6.7706214 q -0.6827935,0 -1.1698529,-0.4825074 -0.4825074,-0.4870594 -0.4825074,-1.1698529 0,-0.6827935 0.4825074,-1.1653009 0.4870594,-0.4870594 1.1698529,-0.4870594 0.4324359,0 0.8284561,0.2230459 0.4005722,0.2230459 0.6008583,0.5963063 0.050072,0.095591 0.050072,0.1775263 0,0.1320068 -0.1046951,0.2275979 -0.104695,0.095591 -0.2412537,0.095591 -0.1092469,0 -0.414228,-0.3277409 -0.3049811,-0.3322929 -0.7192092,-0.3322929 -0.4096761,0 -0.7010014,0.2913253 Q 3.081534,4.7085849 3.081534,5.118261 q 0,0.4096761 0.2913252,0.7010014 0.2913253,0.2913252 0.7010014,0.2913252 0.8193522,0 1.4020027,0.5826505 0.5826505,0.5826505 0.5826501,1.4020028 z"
         id="path33973" />
      <path
         d="m 16.867151,7.762948 q 0,0.9604629 -0.682793,1.6387045 -0.678242,0.6782415 -1.634153,0.6782415 -0.974119,0 -1.65236,-0.6964493 v 2.3488093 q 0,0.332293 -0.332293,0.332293 -0.332293,0 -0.332293,-0.332293 V 5.7782949 q 0,-0.3277409 0.332293,-0.3277409 0.254909,0 0.314085,0.2458056 0.02276,0.091039 0.01821,0.4460918 0.678241,-0.6918974 1.65236,-0.6918974 0.955911,0 1.634153,0.6782415 0.682793,0.6782416 0.682793,1.6341525 z m -0.664586,0 q 0,-0.6782415 -0.487059,-1.1653009 -0.482507,-0.4870594 -1.165301,-0.4870594 -0.682793,0 -1.169853,0.4870594 -0.482507,0.4870594 -0.482507,1.1653009 0,0.6827936 0.482507,1.1698529 0.48706,0.4870594 1.169853,0.4870594 0.682794,0 1.165301,-0.4870594 0.487059,-0.4870593 0.487059,-1.1698529 z"
         id="path33975" />
      <path
         d="m 26.12356,10.412187 q 0,0.678241 -0.487059,1.165301 -0.482508,0.487059 -1.165301,0.487059 -0.427884,0 -0.823904,-0.223046 -0.409677,-0.227597 -0.605411,-0.596306 -0.05007,-0.100143 -0.05007,-0.177526 0,-0.132007 0.104695,-0.23215 0.109247,-0.09559 0.241253,-0.09559 0.113799,0 0.409677,0.332293 0.300429,0.332293 0.723761,0.332293 0.409676,0 0.701001,-0.291326 0.291325,-0.291325 0.291325,-0.701001 V 9.7476012 q -0.44154,0.3322928 -0.992326,0.3322928 -0.682794,0 -1.169853,-0.4825074 Q 22.818839,9.1103273 22.818839,8.4275337 V 5.7782949 q 0,-0.3277409 0.332293,-0.3277409 0.327741,0 0.327741,0.3277409 v 2.6492388 q 0,0.4096762 0.291325,0.7010014 0.291326,0.2913252 0.701002,0.2913252 0.409676,0 0.701001,-0.2913252 0.291325,-0.2913252 0.291325,-0.7010014 V 5.7782949 q 0,-0.3277409 0.332293,-0.3277409 0.327741,0 0.327741,0.3277409 z"
         id="path33977" />
      <path
         d="m 35.261619,6.288114 q 0,0.1320068 -0.109247,0.2275979 -0.104695,0.095591 -0.236702,0.095591 -0.132007,0 -0.345949,-0.2503577 -0.213942,-0.2503576 -0.505267,-0.2503576 -0.273117,0 -0.468852,0.1957342 Q 33.40442,6.502056 33.40442,6.7706214 v 2.9769798 q 0,0.3322928 -0.332293,0.3322928 -0.332292,0 -0.332292,-0.3322928 V 5.7782949 q 0,-0.3277409 0.332292,-0.3277409 0.223046,0 0.304982,0.1911822 0.314085,-0.1911822 0.687345,-0.1911822 0.341397,0 0.664586,0.1820782 0.327741,0.1820783 0.482507,0.4779555 0.05007,0.1001431 0.05007,0.1775263 z"
         id="path33979" />
      <path
         d="m 42.264812,3.966616 q 0,0.2048381 -0.150215,0.3505007 -0.145663,0.1411107 -0.350501,0.1411107 -0.204838,0 -0.355052,-0.1411107 -0.145663,-0.1456626 -0.145663,-0.3505007 0,-0.204838 0.145663,-0.3505006 0.150214,-0.1502146 0.355052,-0.1502146 0.204838,0 0.350501,0.1502146 0.150215,0.1456626 0.150215,0.3505006 z m -0.168423,1.8116789 v 3.9693063 q 0,0.3322928 -0.332293,0.3322928 -0.332292,0 -0.332292,-0.3322928 V 5.7782949 q 0,-0.3277409 0.332292,-0.3277409 0.332293,0 0.332293,0.3277409 z"
         id="path33981" />
      <path
         d="m 51.575858,9.4335162 q 0,0.3368448 -0.345949,0.5098192 -0.273117,0.1365586 -0.646378,0.1365586 -0.546235,0 -0.937703,-0.3869163 Q 49.258912,9.3015094 49.258912,8.7552746 V 6.1105877 h -0.660034 q -0.332293,0 -0.332293,-0.3322928 0,-0.3277409 0.332293,-0.3277409 h 0.660034 V 3.7981936 q 0,-0.3322928 0.332293,-0.3322928 0.332292,0 0.332292,0.3322928 V 5.450554 h 0.660034 q 0.332293,0 0.332293,0.3277409 0,0.3322928 -0.332293,0.3322928 h -0.660034 v 2.6446869 q 0,0.2731174 0.191183,0.4688516 0.195734,0.1957341 0.468851,0.1957341 0.223046,0 0.427884,-0.1638704 0.204838,-0.1638705 0.300429,-0.1638705 0.264014,0 0.264014,0.3413968 z"
         id="path33983" />
    </g>
  </g>
</svg>
